HIERARCHY
ROOT Hips
{
	OFFSET 0.00000 0.00000 0.00000
	CHANNELS 6 Xposition Yposition Zposition Zrotation Yrotation Xrotation 
	JOINT LHipJoint
	{
		OFFSET 0 0 0
		CHANNELS 3 Zrotation Yrotation Xrotation
		JOINT LeftHip
		{
			OFFSET 1.41261 -1.82971 0.84908
			CHANNELS 3 Zrotation Yrotation Xrotation
			JOINT LeftKnee
			{
				OFFSET 2.52554 -6.93888 0.00000
				CHANNELS 3 Zrotation Yrotation Xrotation
				JOINT LeftAnkle
				{
					OFFSET 2.56654 -7.05152 0.00000
					CHANNELS 3 Zrotation Yrotation Xrotation
					JOINT LeftToe
					{
						OFFSET 0.21698 -0.59616 1.85369
						CHANNELS 3 Zrotation Yrotation Xrotation
						End Site
						{
							OFFSET 0.00000 -0.00000 0.97832
						}
					}
				}
			}
		}
	}
	JOINT RHipJoint
	{
		OFFSET 0 0 0
		CHANNELS 3 Zrotation Yrotation Xrotation
		JOINT RightHip
		{
			OFFSET -1.12808 -1.82971 0.84907
			CHANNELS 3 Zrotation Yrotation Xrotation
			JOINT RightKnee
			{
				OFFSET -2.53425 -6.96280 0.00000
				CHANNELS 3 Zrotation Yrotation Xrotation
				JOINT RightAnkle
				{
					OFFSET -2.58413 -7.09983 0.00000
					CHANNELS 3 Zrotation Yrotation Xrotation
					JOINT RightToe
					{
						OFFSET -0.26437 -0.72636 1.92241
						CHANNELS 3 Zrotation Yrotation Xrotation
						End Site
						{
							OFFSET -0.00000 -0.00000 1.02667
						}
					}
				}
			}
		}
	}
	JOINT lowerback
	{
		OFFSET 0 0 0
		CHANNELS 3 Zrotation Yrotation Xrotation
		JOINT Chest
		{
			OFFSET -0.02096 2.02288 -0.14752
			CHANNELS 3 Zrotation Yrotation Xrotation
			JOINT Chest2
			{
				OFFSET 0.03477 2.03136 -0.02358
				CHANNELS 3 Zrotation Yrotation Xrotation
				JOINT lowerneck
				{
					OFFSET 0 0 0
					CHANNELS 3 Zrotation Yrotation Xrotation
					JOINT Neck
					{
						OFFSET 0.00174 1.74359 0.19336
						CHANNELS 3 Zrotation Yrotation Xrotation
						JOINT Head
						{
							OFFSET -0.03054 1.76140 -0.17751
							CHANNELS 3 Zrotation Yrotation Xrotation
							End Site
							{
								OFFSET -0.00863 1.77239 -0.08120
							}
						}
					}
				}
				JOINT LeftCollar
				{
					OFFSET 0 0 0
					CHANNELS 3 Zrotation Yrotation Xrotation
					JOINT LeftShoulder
					{
						OFFSET 3.68685 1.32687 -0.67367
CHANNELS 3 Zrotation Xrotation Yrotation
						JOINT LeftElbow
						{
OFFSET 0 -4.764680 -0.000000
CHANNELS 3 Zrotation Xrotation Yrotation
							JOINT LeftWrist
							{
OFFSET 0 -3.527120 -0.000000
CHANNELS 3 Zrotation Xrotation Yrotation
								JOINT lhand
								{
									OFFSET 0 0 0
CHANNELS 3 Zrotation Xrotation Yrotation
									JOINT LFingers
									{
OFFSET 0 -0.859560 -0.000000
CHANNELS 3 Zrotation Xrotation Yrotation
										End Site
										{
OFFSET 0 -0.693000 -0.000000
										}
									}
								}
								JOINT LThumb
								{
OFFSET 0 0.000000 0.000000
CHANNELS 3 Zrotation Xrotation Yrotation
									End Site
									{
OFFSET 0 -0.703580 0.703580
									}
								}
							}
						}
					}
				}
				JOINT RightCollar
				{
					OFFSET 0 0 0
					CHANNELS 3 Zrotation Yrotation Xrotation
					JOINT RightShoulder
					{
						OFFSET -3.31304 1.28268 -0.97357
CHANNELS 3 Zrotation Xrotation Yrotation
						JOINT RightElbow
						{
OFFSET 0 -4.905770 -0.000000
CHANNELS 3 Zrotation Xrotation Yrotation
							JOINT RightWrist
							{
OFFSET 0 -3.426920 0.000000
CHANNELS 3 Zrotation Xrotation Yrotation
								JOINT rhand
								{
									OFFSET 0 0 0
CHANNELS 3 Zrotation Xrotation Yrotation
									JOINT RFingers
									{
OFFSET 0 -0.740960 -0.000000
CHANNELS 3 Zrotation Xrotation Yrotation
										End Site
										{
OFFSET 0 -0.597380 -0.000000
										}
									}
								}
								JOINT RThumb
								{
OFFSET 0 0.000000 0.000000
CHANNELS 3 Zrotation Xrotation Yrotation
									End Site
									{
OFFSET 0 -0.606500 0.606500
									}
								}
							}
						}
					}
				}
			}
		}
	}
}
MOTION
Frames: 9
Frame Time: 0.008333333333333333
-17.143700 17.749000 -30.003300 -3.800500 31.643100 6.606900 0.000000 0.000000 0.000000 -19.721700 -3.541600 -12.957700 2.556000 9.939000 28.779600 1.755200 -5.589100 -23.880000 1.506600 -7.752400 -21.964500 0.000000 0.000000 0.000000 25.861200 1.316400 -15.009900 -2.824500 -10.405400 30.299700 -2.501000 5.812400 -28.704800 -0.019300 -0.896600 2.464300 -0.760000 -0.297800 7.890400 2.611600 -0.345400 0.555400 3.176100 -0.132900 -3.830500 -3.703500 0.705700 -13.564300 2.375500 1.349600 17.938200 1.540800 0.636600 7.725400 -0.000000 0.000000 0.000000 -7.897700 7.385900 -10.999800 25.574300 -36.785200 8.631400 5.029900 -2.510400 9.348200 0.000000 0.000000 0.000000 -7.125000 0.000000 0.000000 -15.595300 20.731400 -9.414200 -0.000000 0.000000 0.000000 -1.731300 -1.190500 17.619900 -14.173900 -22.982800 -2.895700 -8.779100 -0.123100 39.472200 0.000000 0.000000 0.000000 7.125000 0.000000 -0.000000 35.472600 66.507600 -19.409500
-17.132557 17.748587 -30.003850 -3.886752 31.642171 6.533270 0.000000 0.000000 0.000000 -19.668704 -3.589059 -12.915675 2.572473 9.968370 28.874587 1.775284 -5.649077 -24.014915 1.415499 -7.516274 -21.258150 0.000000 0.000000 0.000000 25.912889 1.271486 -14.970970 -2.825394 -10.406879 30.304618 -2.497939 5.721334 -28.697991 -0.016170 -0.812893 2.234123 -0.658169 -0.294946 7.951512 2.627110 -0.331472 0.584598 3.133559 -0.127569 -3.835727 -3.635097 0.708864 -13.575133 2.358992 1.342447 17.926507 1.523261 0.636290 7.724265 0.000000 0.000000 0.000000 -7.855503 7.393604 -10.986869 25.655943 -36.866706 8.680441 5.225824 -2.698276 9.562901 0.000000 0.000000 0.000000 -7.125000 0.000000 0.000000 -15.439923 20.518659 -9.388854 0.000000 0.000000 0.000000 -0.808324 -0.923388 16.219444 -14.306751 -23.170917 -2.948146 -8.478560 1.485110 39.359467 0.000000 0.000000 0.000000 7.125000 0.000000 0.000000 35.617969 66.331142 -19.355610
-17.121415 17.748175 -30.004401 -3.973004 31.641243 6.459639 0.000000 0.000000 0.000000 -19.615708 -3.636518 -12.873649 2.588946 9.997739 28.969574 1.795368 -5.709055 -24.149829 1.324398 -7.280148 -20.551801 0.000000 0.000000 0.000000 25.964578 1.226572 -14.932040 -2.826288 -10.408358 30.309536 -2.494878 5.630267 -28.691181 -0.013041 -0.729186 2.003947 -0.556339 -0.292091 8.012624 2.642620 -0.317544 0.613795 3.091018 -0.122239 -3.840955 -3.566694 0.712028 -13.585966 2.342485 1.335293 17.914814 1.505722 0.635981 7.723130 0.000000 0.000000 0.000000 -7.813305 7.401307 -10.973938 25.737587 -36.948212 8.729482 5.421747 -2.886152 9.777602 0.000000 0.000000 0.000000 -7.125000 0.000000 0.000000 -15.284546 20.305919 -9.363508 0.000000 0.000000 0.000000 0.114653 -0.656276 14.818988 -14.439602 -23.359034 -3.000591 -8.178020 3.093320 39.246735 0.000000 0.000000 0.000000 7.125000 0.000000 0.000000 35.763339 66.154683 -19.301720
-17.110260 17.747578 -30.004881 -4.048274 31.640432 6.393308 0.000000 0.000000 0.000000 -19.573893 -3.681119 -12.831846 2.604189 10.024911 29.057456 1.814422 -5.764182 -24.277946 1.237380 -7.053578 -19.874494 0.000000 0.000000 0.000000 26.004683 1.187012 -14.900896 -2.829761 -10.414134 30.328632 -2.492677 5.546442 -28.688632 -0.010368 -0.658018 1.808252 -0.464763 -0.290230 8.071621 2.655869 -0.305978 0.642248 3.052168 -0.117942 -3.845583 -3.500381 0.716537 -13.594519 2.329692 1.329622 17.900939 1.489854 0.636601 7.720774 0.000000 0.000000 0.000000 -7.771784 7.410282 -10.959139 25.814929 -37.025404 8.775948 5.612773 -3.067986 10.000093 0.000000 0.000000 0.000000 -7.125000 0.000000 0.000000 -15.132167 20.085620 -9.342352 0.000000 0.000000 0.000000 0.950949 -0.412455 13.570037 -14.560359 -23.530025 -3.048263 -7.897267 4.555411 39.147150 0.000000 0.000000 0.000000 7.125000 0.000000 0.000000 35.907436 65.994348 -19.259940
-17.098979 17.745171 -30.004675 -4.015465 31.640776 6.398810 0.000000 0.000000 0.000000 -19.642124 -3.697592 -12.792228 2.607318 10.030448 29.075408 1.823329 -5.771576 -24.339161 1.190540 -6.921071 -19.483025 0.000000 0.000000 0.000000 25.930778 1.200149 -14.946395 -2.858615 -10.462213 30.487276 -2.498936 5.533890 -28.728009 -0.012191 -0.710258 1.951937 -0.474117 -0.298139 8.109794 2.646859 -0.317671 0.663363 3.049658 -0.123823 -3.844310 -3.454642 0.734282 -13.580625 2.353456 1.338529 17.865586 1.490439 0.646368 7.706399 0.000000 0.000000 0.000000 -7.736912 7.431777 -10.925952 25.849939 -37.060138 8.797063 5.755597 -3.190348 10.299257 0.000000 0.000000 0.000000 -7.125000 0.000000 0.000000 -15.009289 19.790926 -9.362437 0.000000 0.000000 0.000000 0.934132 -0.397873 13.812216 -14.562078 -23.532467 -3.048951 -7.811256 4.579381 39.176967 0.000000 0.000000 0.000000 7.125000 0.000000 0.000000 36.039015 65.992697 -19.337353
-17.087699 17.742763 -30.004468 -3.982657 31.641120 6.404313 0.000000 0.000000 0.000000 -19.710355 -3.714066 -12.752610 2.610448 10.035984 29.093360 1.832236 -5.778970 -24.400377 1.143700 -6.788564 -19.091556 0.000000 0.000000 0.000000 25.856872 1.213286 -14.991894 -2.887469 -10.510291 30.645920 -2.505195 5.521337 -28.767386 -0.014014 -0.762497 2.095621 -0.483471 -0.306049 8.147968 2.637848 -0.329364 0.684479 3.047147 -0.129704 -3.843038 -3.408902 0.752028 -13.566731 2.377220 1.347436 17.830232 1.491023 0.656135 7.692024 0.000000 0.000000 0.000000 -7.702039 7.453271 -10.892765 25.884948 -37.094873 8.818179 5.898422 -3.312710 10.598421 0.000000 0.000000 0.000000 -7.125000 0.000000 0.000000 -14.886411 19.496233 -9.382521 0.000000 0.000000 0.000000 0.917315 -0.383292 14.054395 -14.563798 -23.534909 -3.049639 -7.725245 4.603351 39.206783 0.000000 0.000000 0.000000 7.125000 0.000000 0.000000 36.170593 65.991046 -19.414767
-17.076540 17.739918 -30.004129 -3.934553 31.641495 6.416007 0.000000 0.000000 0.000000 -19.792746 -3.717800 -12.718054 2.613768 10.041858 29.112403 1.841099 -5.804412 -24.459467 1.107987 -6.687694 -18.793489 0.000000 0.000000 0.000000 25.768864 1.240386 -15.033777 -2.916951 -10.559225 30.807565 -2.509970 5.502523 -28.798694 -0.017340 -0.840410 2.309970 -0.510639 -0.314219 8.186763 2.628470 -0.343081 0.705836 3.054578 -0.136314 -3.841632 -3.366899 0.765523 -13.548587 2.391582 1.353114 17.798983 1.488817 0.663174 7.678422 0.000000 0.000000 0.000000 -7.674856 7.473750 -10.856685 25.915651 -37.125325 8.836694 6.055025 -3.435928 10.883864 0.000000 0.000000 0.000000 -7.125000 0.000000 0.000000 -14.755584 19.214119 -9.391896 0.000000 0.000000 0.000000 0.907559 -0.379152 14.259157 -14.561210 -23.531273 -3.048608 -7.660099 4.647920 39.230022 0.000000 0.000000 0.000000 7.125000 0.000000 0.000000 36.271201 65.990309 -19.474379
-17.065913 17.735138 -30.003200 -3.818828 31.642011 6.455074 0.000000 0.000000 0.000000 -19.937737 -3.665217 -12.705880 2.617929 10.049217 29.136270 1.849765 -5.909648 -24.509161 1.121468 -6.726693 -18.908353 0.000000 0.000000 0.000000 25.618509 1.329217 -15.059673 -2.949209 -10.611946 30.982476 -2.508182 5.456027 -28.794327 -0.027313 -1.031829 2.836731 -0.616562 -0.323539 8.228307 2.617465 -0.365744 0.728259 3.105957 -0.146150 -3.839637 -3.341416 0.760227 -13.511651 2.364379 1.344516 17.785880 1.474269 0.658153 7.668243 0.000000 0.000000 0.000000 -7.681665 7.489742 -10.807816 25.927309 -37.136846 8.843710 6.272546 -3.562933 11.108641 0.000000 0.000000 0.000000 -7.125000 0.000000 0.000000 -14.589615 18.987622 -9.353929 0.000000 0.000000 0.000000 0.929018 -0.421178 14.298500 -14.539578 -23.500768 -3.039976 -7.687199 4.783557 39.224175 0.000000 0.000000 0.000000 7.125000 0.000000 0.000000 36.234884 65.993611 -19.455292
-17.055286 17.730358 -30.002272 -3.703104 31.642527 6.494142 0.000000 0.000000 0.000000 -20.082728 -3.612634 -12.693706 2.622090 10.056577 29.160137 1.858432 -6.014883 -24.558856 1.134949 -6.765692 -19.023218 0.000000 0.000000 0.000000 25.468153 1.418048 -15.085569 -2.981467 -10.664667 31.157387 -2.506393 5.409531 -28.789959 -0.037286 -1.223247 3.363493 -0.722486 -0.332859 8.269851 2.606460 -0.388408 0.750682 3.157337 -0.155986 -3.837643 -3.315932 0.754931 -13.474716 2.337176 1.335919 17.772777 1.459722 0.653132 7.658063 0.000000 0.000000 0.000000 -7.688475 7.505733 -10.758947 25.938967 -37.148367 8.850726 6.490067 -3.689937 11.333418 0.000000 0.000000 0.000000 -7.125000 0.000000 0.000000 -14.423646 18.761125 -9.315962 0.000000 0.000000 0.000000 0.950478 -0.463203 14.337843 -14.517946 -23.470264 -3.031344 -7.714299 4.919194 39.218329 0.000000 0.000000 0.000000 7.125000 0.000000 0.000000 36.198568 65.996912 -19.436206
